solid OpenSCAD_Model
  facet normal -1 0 0
    outer loop
      vertex 0 0 0
      vertex 0 0 2
      vertex 0 80 0
    endloop
  endfacet
  facet normal -1 0 0
    outer loop
      vertex 0 80 0
      vertex 0 0 2
      vertex 0 80 2
    endloop
  endfacet
  facet normal 0 -1 0
    outer loop
      vertex 0 0 2
      vertex 0 0 0
      vertex 70 0 0
    endloop
  endfacet
  facet normal 0 -1 0
    outer loop
      vertex 70 0 2
      vertex 0 0 2
      vertex 70 0 0
    endloop
  endfacet
  facet normal 0 0 -1
    outer loop
      vertex 0 0 0
      vertex 0 80 0
      vertex 70 0 0
    endloop
  endfacet
  facet normal 0 0 -1
    outer loop
      vertex 70 0 0
      vertex 0 80 0
      vertex 70 80 0
    endloop
  endfacet
  facet normal 0 1 0
    outer loop
      vertex 0 80 0
      vertex 0 80 2
      vertex 70 80 0
    endloop
  endfacet
  facet normal 0 1 0
    outer loop
      vertex 70 80 0
      vertex 0 80 2
      vertex 70 80 2
    endloop
  endfacet
  facet normal 0 0 1
    outer loop
      vertex 36.986 6.10408 2
      vertex 0 0 2
      vertex 70 0 2
    endloop
  endfacet
  facet normal 0 0 1
    outer loop
      vertex 33.223 8.09313 2
      vertex 36.777 8.09313 2
      vertex 26.5 10.2776 2
    endloop
  endfacet
  facet normal 0 0 1
    outer loop
      vertex 0 80 2
      vertex 0 0 2
      vertex 16.4152 21.0497 2
    endloop
  endfacet
  facet normal 0 0 1
    outer loop
      vertex 46.3752 12.3665 2
      vertex 48.7533 15.0077 2
      vertex 19.4697 31.9145 2
    endloop
  endfacet
  facet normal 0 0 1
    outer loop
      vertex 0 80 2
      vertex 16.4152 21.0497 2
      vertex 16 25 2
    endloop
  endfacet
  facet normal 0 0 1
    outer loop
      vertex 18.3715 21.4655 2
      vertex 19.4697 18.0855 2
      vertex 43.5 10.2776 2
    endloop
  endfacet
  facet normal 0 0 1
    outer loop
      vertex 0 80 2
      vertex 16 25 2
      vertex 16.4152 28.9503 2
    endloop
  endfacet
  facet normal 0 0 1
    outer loop
      vertex 48.7533 15.0077 2
      vertex 50.5303 18.0855 2
      vertex 26.5 39.7224 2
    endloop
  endfacet
  facet normal 0 0 1
    outer loop
      vertex 0 80 2
      vertex 16.4152 28.9503 2
      vertex 17.6426 32.728 2
    endloop
  endfacet
  facet normal 0 0 1
    outer loop
      vertex 48.7533 15.0077 2
      vertex 26.5 39.7224 2
      vertex 23.6248 37.6335 2
    endloop
  endfacet
  facet normal 0 0 1
    outer loop
      vertex 0 80 2
      vertex 17.6426 32.728 2
      vertex 19.6287 36.1679 2
    endloop
  endfacet
  facet normal 0 0 1
    outer loop
      vertex 50.5303 18.0855 2
      vertex 32 41.6469 2
      vertex 29.7467 41.168 2
    endloop
  endfacet
  facet normal 0 0 1
    outer loop
      vertex 0 80 2
      vertex 19.6287 36.1679 2
      vertex 22.2865 39.1198 2
    endloop
  endfacet
  facet normal 0 0 1
    outer loop
      vertex 18.3715 28.5345 2
      vertex 18 25 2
      vertex 46.3752 12.3665 2
    endloop
  endfacet
  facet normal 0 0 1
    outer loop
      vertex 0 80 2
      vertex 22.2865 39.1198 2
      vertex 25.5 41.4545 2
    endloop
  endfacet
  facet normal 0 0 1
    outer loop
      vertex 44.5 8.54552 2
      vertex 40.8713 6.92993 2
      vertex 70 0 2
    endloop
  endfacet
  facet normal 0 0 1
    outer loop
      vertex 0 80 2
      vertex 25.5 41.4545 2
      vertex 29.1287 43.0701 2
    endloop
  endfacet
  facet normal 0 0 1
    outer loop
      vertex 70 80 2
      vertex 0 80 2
      vertex 32 43.6804 2
    endloop
  endfacet
  facet normal 0 0 1
    outer loop
      vertex 44.5 41.4545 2
      vertex 47.7135 39.1198 2
      vertex 70 80 2
    endloop
  endfacet
  facet normal 0 0 1
    outer loop
      vertex 48.7533 15.0077 2
      vertex 23.6248 37.6335 2
      vertex 21.2467 34.9923 2
    endloop
  endfacet
  facet normal 0 0 1
    outer loop
      vertex 43.5 10.2776 2
      vertex 46.3752 12.3665 2
      vertex 18 25 2
    endloop
  endfacet
  facet normal 0 0 1
    outer loop
      vertex 36.777 8.09313 2
      vertex 40.2533 8.83204 2
      vertex 23.6248 12.3665 2
    endloop
  endfacet
  facet normal 0 0 1
    outer loop
      vertex 29.1287 6.92993 2
      vertex 25.5 8.54552 2
      vertex 0 0 2
    endloop
  endfacet
  facet normal 0 0 1
    outer loop
      vertex 26.5 10.2776 2
      vertex 29.7467 8.83204 2
      vertex 33.223 8.09313 2
    endloop
  endfacet
  facet normal 0 0 1
    outer loop
      vertex 40.8713 6.92993 2
      vertex 36.986 6.10408 2
      vertex 70 0 2
    endloop
  endfacet
  facet normal 0 0 1
    outer loop
      vertex 23.6248 12.3665 2
      vertex 26.5 10.2776 2
      vertex 36.777 8.09313 2
    endloop
  endfacet
  facet normal 0 0 1
    outer loop
      vertex 50.5303 18.0855 2
      vertex 51.6285 21.4655 2
      vertex 32 43.6804 2
    endloop
  endfacet
  facet normal 0 0 1
    outer loop
      vertex 21.2467 15.0077 2
      vertex 23.6248 12.3665 2
      vertex 40.2533 8.83204 2
    endloop
  endfacet
  facet normal 0 0 1
    outer loop
      vertex 19.6287 13.8321 2
      vertex 17.6426 17.272 2
      vertex 0 0 2
    endloop
  endfacet
  facet normal 0 0 1
    outer loop
      vertex 46.3752 12.3665 2
      vertex 19.4697 31.9145 2
      vertex 18.3715 28.5345 2
    endloop
  endfacet
  facet normal 0 0 1
    outer loop
      vertex 50.5303 18.0855 2
      vertex 32 43.6804 2
      vertex 32 41.6469 2
    endloop
  endfacet
  facet normal 0 0 1
    outer loop
      vertex 21.2467 34.9923 2
      vertex 19.4697 31.9145 2
      vertex 48.7533 15.0077 2
    endloop
  endfacet
  facet normal 0 0 1
    outer loop
      vertex 52 25 2
      vertex 32 43.6804 2
      vertex 51.6285 21.4655 2
    endloop
  endfacet
  facet normal 0 0 1
    outer loop
      vertex 51.6285 28.5345 2
      vertex 32 43.6804 2
      vertex 52 25 2
    endloop
  endfacet
  facet normal 0 0 1
    outer loop
      vertex 53.5848 28.9503 2
      vertex 54 25 2
      vertex 70 80 2
    endloop
  endfacet
  facet normal 0 0 1
    outer loop
      vertex 50.5303 31.9145 2
      vertex 32 43.6804 2
      vertex 51.6285 28.5345 2
    endloop
  endfacet
  facet normal 0 0 1
    outer loop
      vertex 48.7533 34.9923 2
      vertex 32 43.6804 2
      vertex 50.5303 31.9145 2
    endloop
  endfacet
  facet normal 0 0 1
    outer loop
      vertex 46.3752 37.6335 2
      vertex 32 43.6804 2
      vertex 48.7533 34.9923 2
    endloop
  endfacet
  facet normal 0 0 1
    outer loop
      vertex 43.5 39.7224 2
      vertex 32 43.6804 2
      vertex 46.3752 37.6335 2
    endloop
  endfacet
  facet normal 0 0 1
    outer loop
      vertex 47.7135 39.1198 2
      vertex 50.3713 36.1679 2
      vertex 70 80 2
    endloop
  endfacet
  facet normal 0 0 1
    outer loop
      vertex 38 41.6469 2
      vertex 32 43.6804 2
      vertex 43.5 39.7224 2
    endloop
  endfacet
  facet normal 0 0 1
    outer loop
      vertex 40.2533 41.168 2
      vertex 38 41.6469 2
      vertex 43.5 39.7224 2
    endloop
  endfacet
  facet normal 0 0 1
    outer loop
      vertex 40.8713 43.0701 2
      vertex 44.5 41.4545 2
      vertex 70 80 2
    endloop
  endfacet
  facet normal 0 0 1
    outer loop
      vertex 70 80 2
      vertex 32 43.6804 2
      vertex 38 43.6804 2
    endloop
  endfacet
  facet normal 0 0 1
    outer loop
      vertex 70 80 2
      vertex 38 43.6804 2
      vertex 40.8713 43.0701 2
    endloop
  endfacet
  facet normal 0 0 1
    outer loop
      vertex 52.3574 32.728 2
      vertex 53.5848 28.9503 2
      vertex 70 80 2
    endloop
  endfacet
  facet normal 0 0 1
    outer loop
      vertex 50.3713 36.1679 2
      vertex 52.3574 32.728 2
      vertex 70 80 2
    endloop
  endfacet
  facet normal 0 0 1
    outer loop
      vertex 52.3574 17.272 2
      vertex 50.3713 13.8321 2
      vertex 70 0 2
    endloop
  endfacet
  facet normal 0 0 1
    outer loop
      vertex 53.5848 21.0497 2
      vertex 52.3574 17.272 2
      vertex 70 0 2
    endloop
  endfacet
  facet normal 0 0 1
    outer loop
      vertex 70 80 2
      vertex 54 25 2
      vertex 70 0 2
    endloop
  endfacet
  facet normal 0 0 1
    outer loop
      vertex 54 25 2
      vertex 53.5848 21.0497 2
      vertex 70 0 2
    endloop
  endfacet
  facet normal 0 0 1
    outer loop
      vertex 40.2533 8.83204 2
      vertex 19.4697 18.0855 2
      vertex 21.2467 15.0077 2
    endloop
  endfacet
  facet normal 0 0 1
    outer loop
      vertex 50.3713 13.8321 2
      vertex 47.7135 10.8802 2
      vertex 70 0 2
    endloop
  endfacet
  facet normal 0 0 1
    outer loop
      vertex 47.7135 10.8802 2
      vertex 44.5 8.54552 2
      vertex 70 0 2
    endloop
  endfacet
  facet normal 0 0 1
    outer loop
      vertex 43.5 10.2776 2
      vertex 18 25 2
      vertex 18.3715 21.4655 2
    endloop
  endfacet
  facet normal 0 0 1
    outer loop
      vertex 33.014 6.10408 2
      vertex 0 0 2
      vertex 36.986 6.10408 2
    endloop
  endfacet
  facet normal 0 0 1
    outer loop
      vertex 29.1287 6.92993 2
      vertex 0 0 2
      vertex 33.014 6.10408 2
    endloop
  endfacet
  facet normal 0 0 1
    outer loop
      vertex 25.5 8.54552 2
      vertex 22.2865 10.8802 2
      vertex 0 0 2
    endloop
  endfacet
  facet normal 0 0 1
    outer loop
      vertex 22.2865 10.8802 2
      vertex 19.6287 13.8321 2
      vertex 0 0 2
    endloop
  endfacet
  facet normal 0 0 1
    outer loop
      vertex 16.4152 21.0497 2
      vertex 0 0 2
      vertex 17.6426 17.272 2
    endloop
  endfacet
  facet normal 0 0 1
    outer loop
      vertex 38 41.6469 2
      vertex 38 43.6804 2
      vertex 32 43.6804 2
    endloop
  endfacet
  facet normal 0 0 1
    outer loop
      vertex 29.1287 43.0701 2
      vertex 32 43.6804 2
      vertex 0 80 2
    endloop
  endfacet
  facet normal 0 0 1
    outer loop
      vertex 29.7467 41.168 2
      vertex 26.5 39.7224 2
      vertex 50.5303 18.0855 2
    endloop
  endfacet
  facet normal 0 0 1
    outer loop
      vertex 40.2533 8.83204 2
      vertex 43.5 10.2776 2
      vertex 19.4697 18.0855 2
    endloop
  endfacet
  facet normal 1 0 0
    outer loop
      vertex 70 0 2
      vertex 70 0 0
      vertex 70 80 0
    endloop
  endfacet
  facet normal 1 0 0
    outer loop
      vertex 70 80 2
      vertex 70 0 2
      vertex 70 80 0
    endloop
  endfacet
  facet normal -0.994522 -0.104529 0
    outer loop
      vertex 16 25 2
      vertex 16.4152 21.0497 2
      vertex 16 25 28
    endloop
  endfacet
  facet normal -0.994522 -0.104529 0
    outer loop
      vertex 16 25 28
      vertex 16.4152 21.0497 2
      vertex 16.4152 21.0497 28
    endloop
  endfacet
  facet normal -0.951057 -0.309017 0
    outer loop
      vertex 16.4152 21.0497 2
      vertex 17.6426 17.272 2
      vertex 16.4152 21.0497 28
    endloop
  endfacet
  facet normal -0.951057 -0.309017 0
    outer loop
      vertex 16.4152 21.0497 28
      vertex 17.6426 17.272 2
      vertex 17.6426 17.272 28
    endloop
  endfacet
  facet normal -0.866025 -0.5 0
    outer loop
      vertex 17.6426 17.272 2
      vertex 19.6287 13.8321 2
      vertex 17.6426 17.272 28
    endloop
  endfacet
  facet normal -0.866025 -0.5 0
    outer loop
      vertex 17.6426 17.272 28
      vertex 19.6287 13.8321 2
      vertex 19.6287 13.8321 28
    endloop
  endfacet
  facet normal -0.743145 -0.669131 0
    outer loop
      vertex 19.6287 13.8321 2
      vertex 22.2865 10.8802 2
      vertex 19.6287 13.8321 28
    endloop
  endfacet
  facet normal -0.743145 -0.669131 0
    outer loop
      vertex 19.6287 13.8321 28
      vertex 22.2865 10.8802 2
      vertex 22.2865 10.8802 28
    endloop
  endfacet
  facet normal -0.587785 -0.809017 0
    outer loop
      vertex 22.2865 10.8802 28
      vertex 22.2865 10.8802 2
      vertex 25.5 8.54552 2
    endloop
  endfacet
  facet normal -0.587785 -0.809017 0
    outer loop
      vertex 25.5 8.54552 28
      vertex 22.2865 10.8802 28
      vertex 25.5 8.54552 2
    endloop
  endfacet
  facet normal -0.406737 -0.913545 0
    outer loop
      vertex 25.5 8.54552 28
      vertex 25.5 8.54552 2
      vertex 29.1287 6.92993 2
    endloop
  endfacet
  facet normal -0.406737 -0.913545 0
    outer loop
      vertex 29.1287 6.92993 28
      vertex 25.5 8.54552 28
      vertex 29.1287 6.92993 2
    endloop
  endfacet
  facet normal -0.207912 -0.978148 0
    outer loop
      vertex 29.1287 6.92993 28
      vertex 29.1287 6.92993 2
      vertex 33.014 6.10408 2
    endloop
  endfacet
  facet normal -0.207912 -0.978148 0
    outer loop
      vertex 33.014 6.10408 28
      vertex 29.1287 6.92993 28
      vertex 33.014 6.10408 2
    endloop
  endfacet
  facet normal 0 -1 0
    outer loop
      vertex 33.014 6.10408 28
      vertex 33.014 6.10408 2
      vertex 36.986 6.10408 2
    endloop
  endfacet
  facet normal 0 -1 0
    outer loop
      vertex 36.986 6.10408 28
      vertex 33.014 6.10408 28
      vertex 36.986 6.10408 2
    endloop
  endfacet
  facet normal 0.207912 -0.978148 0
    outer loop
      vertex 36.986 6.10408 28
      vertex 36.986 6.10408 2
      vertex 40.8713 6.92993 2
    endloop
  endfacet
  facet normal 0.207912 -0.978148 0
    outer loop
      vertex 40.8713 6.92993 28
      vertex 36.986 6.10408 28
      vertex 40.8713 6.92993 2
    endloop
  endfacet
  facet normal 0.406737 -0.913545 0
    outer loop
      vertex 40.8713 6.92993 28
      vertex 40.8713 6.92993 2
      vertex 44.5 8.54552 2
    endloop
  endfacet
  facet normal 0.406737 -0.913545 0
    outer loop
      vertex 44.5 8.54552 28
      vertex 40.8713 6.92993 28
      vertex 44.5 8.54552 2
    endloop
  endfacet
  facet normal 0.587785 -0.809017 0
    outer loop
      vertex 44.5 8.54552 28
      vertex 44.5 8.54552 2
      vertex 47.7135 10.8802 2
    endloop
  endfacet
  facet normal 0.587785 -0.809017 0
    outer loop
      vertex 47.7135 10.8802 28
      vertex 44.5 8.54552 28
      vertex 47.7135 10.8802 2
    endloop
  endfacet
  facet normal 0.743145 -0.669131 0
    outer loop
      vertex 47.7135 10.8802 28
      vertex 47.7135 10.8802 2
      vertex 50.3713 13.8321 2
    endloop
  endfacet
  facet normal 0.743145 -0.669131 0
    outer loop
      vertex 50.3713 13.8321 28
      vertex 47.7135 10.8802 28
      vertex 50.3713 13.8321 2
    endloop
  endfacet
  facet normal 0.866025 -0.5 0
    outer loop
      vertex 50.3713 13.8321 28
      vertex 50.3713 13.8321 2
      vertex 52.3574 17.272 2
    endloop
  endfacet
  facet normal 0.866025 -0.5 0
    outer loop
      vertex 52.3574 17.272 28
      vertex 50.3713 13.8321 28
      vertex 52.3574 17.272 2
    endloop
  endfacet
  facet normal 0.951057 -0.309017 0
    outer loop
      vertex 52.3574 17.272 28
      vertex 52.3574 17.272 2
      vertex 53.5848 21.0497 2
    endloop
  endfacet
  facet normal 0.951057 -0.309017 0
    outer loop
      vertex 53.5848 21.0497 28
      vertex 52.3574 17.272 28
      vertex 53.5848 21.0497 2
    endloop
  endfacet
  facet normal 0.994522 -0.104529 0
    outer loop
      vertex 53.5848 21.0497 28
      vertex 53.5848 21.0497 2
      vertex 54 25 2
    endloop
  endfacet
  facet normal 0.994522 -0.104529 0
    outer loop
      vertex 54 25 28
      vertex 53.5848 21.0497 28
      vertex 54 25 2
    endloop
  endfacet
  facet normal 0.994522 0.104529 0
    outer loop
      vertex 54 25 2
      vertex 53.5848 28.9503 2
      vertex 53.5848 28.9503 28
    endloop
  endfacet
  facet normal 0.994522 0.104529 0
    outer loop
      vertex 54 25 28
      vertex 54 25 2
      vertex 53.5848 28.9503 28
    endloop
  endfacet
  facet normal 0.951057 0.309017 0
    outer loop
      vertex 53.5848 28.9503 2
      vertex 52.3574 32.728 2
      vertex 52.3574 32.728 28
    endloop
  endfacet
  facet normal 0.951057 0.309017 0
    outer loop
      vertex 53.5848 28.9503 28
      vertex 53.5848 28.9503 2
      vertex 52.3574 32.728 28
    endloop
  endfacet
  facet normal 0.866025 0.5 0
    outer loop
      vertex 52.3574 32.728 2
      vertex 50.3713 36.1679 2
      vertex 50.3713 36.1679 28
    endloop
  endfacet
  facet normal 0.866025 0.5 0
    outer loop
      vertex 52.3574 32.728 28
      vertex 52.3574 32.728 2
      vertex 50.3713 36.1679 28
    endloop
  endfacet
  facet normal 0.743145 0.669131 0
    outer loop
      vertex 50.3713 36.1679 2
      vertex 47.7135 39.1198 2
      vertex 47.7135 39.1198 28
    endloop
  endfacet
  facet normal 0.743145 0.669131 0
    outer loop
      vertex 50.3713 36.1679 28
      vertex 50.3713 36.1679 2
      vertex 47.7135 39.1198 28
    endloop
  endfacet
  facet normal 0.587785 0.809017 0
    outer loop
      vertex 44.5 41.4545 2
      vertex 44.5 41.4545 28
      vertex 47.7135 39.1198 2
    endloop
  endfacet
  facet normal 0.587785 0.809017 0
    outer loop
      vertex 47.7135 39.1198 2
      vertex 44.5 41.4545 28
      vertex 47.7135 39.1198 28
    endloop
  endfacet
  facet normal 0.406737 0.913545 0
    outer loop
      vertex 40.8713 43.0701 2
      vertex 40.8713 43.0701 28
      vertex 44.5 41.4545 2
    endloop
  endfacet
  facet normal 0.406737 0.913545 0
    outer loop
      vertex 44.5 41.4545 2
      vertex 40.8713 43.0701 28
      vertex 44.5 41.4545 28
    endloop
  endfacet
  facet normal 0.207912 0.978148 0
    outer loop
      vertex 38 43.6804 2
      vertex 38 43.6804 28
      vertex 40.8713 43.0701 2
    endloop
  endfacet
  facet normal 0.207912 0.978148 0
    outer loop
      vertex 40.8713 43.0701 2
      vertex 38 43.6804 28
      vertex 40.8713 43.0701 28
    endloop
  endfacet
  facet normal -1 0 0
    outer loop
      vertex 38 43.6804 28
      vertex 38 43.6804 2
      vertex 38 41.6469 28
    endloop
  endfacet
  facet normal -1 0 0
    outer loop
      vertex 38 41.6469 28
      vertex 38 43.6804 2
      vertex 38 41.6469 2
    endloop
  endfacet
  facet normal -0.207912 -0.978148 0
    outer loop
      vertex 40.2533 41.168 2
      vertex 40.2533 41.168 28
      vertex 38 41.6469 28
    endloop
  endfacet
  facet normal -0.207912 -0.978148 0
    outer loop
      vertex 38 41.6469 2
      vertex 40.2533 41.168 2
      vertex 38 41.6469 28
    endloop
  endfacet
  facet normal -0.406737 -0.913545 0
    outer loop
      vertex 43.5 39.7224 2
      vertex 43.5 39.7224 28
      vertex 40.2533 41.168 28
    endloop
  endfacet
  facet normal -0.406737 -0.913545 0
    outer loop
      vertex 40.2533 41.168 2
      vertex 43.5 39.7224 2
      vertex 40.2533 41.168 28
    endloop
  endfacet
  facet normal -0.587785 -0.809017 0
    outer loop
      vertex 46.3752 37.6335 2
      vertex 46.3752 37.6335 28
      vertex 43.5 39.7224 28
    endloop
  endfacet
  facet normal -0.587785 -0.809017 0
    outer loop
      vertex 43.5 39.7224 2
      vertex 46.3752 37.6335 2
      vertex 43.5 39.7224 28
    endloop
  endfacet
  facet normal -0.743145 -0.669131 0
    outer loop
      vertex 48.7533 34.9923 28
      vertex 46.3752 37.6335 28
      vertex 48.7533 34.9923 2
    endloop
  endfacet
  facet normal -0.743145 -0.669131 0
    outer loop
      vertex 48.7533 34.9923 2
      vertex 46.3752 37.6335 28
      vertex 46.3752 37.6335 2
    endloop
  endfacet
  facet normal -0.866025 -0.5 0
    outer loop
      vertex 50.5303 31.9145 28
      vertex 48.7533 34.9923 28
      vertex 50.5303 31.9145 2
    endloop
  endfacet
  facet normal -0.866025 -0.5 0
    outer loop
      vertex 50.5303 31.9145 2
      vertex 48.7533 34.9923 28
      vertex 48.7533 34.9923 2
    endloop
  endfacet
  facet normal -0.951057 -0.309017 0
    outer loop
      vertex 51.6285 28.5345 28
      vertex 50.5303 31.9145 28
      vertex 51.6285 28.5345 2
    endloop
  endfacet
  facet normal -0.951057 -0.309017 0
    outer loop
      vertex 51.6285 28.5345 2
      vertex 50.5303 31.9145 28
      vertex 50.5303 31.9145 2
    endloop
  endfacet
  facet normal -0.994522 -0.104529 0
    outer loop
      vertex 52 25 28
      vertex 51.6285 28.5345 28
      vertex 52 25 2
    endloop
  endfacet
  facet normal -0.994522 -0.104529 0
    outer loop
      vertex 52 25 2
      vertex 51.6285 28.5345 28
      vertex 51.6285 28.5345 2
    endloop
  endfacet
  facet normal -0.994522 0.104529 0
    outer loop
      vertex 52 25 28
      vertex 52 25 2
      vertex 51.6285 21.4655 28
    endloop
  endfacet
  facet normal -0.994522 0.104529 0
    outer loop
      vertex 51.6285 21.4655 28
      vertex 52 25 2
      vertex 51.6285 21.4655 2
    endloop
  endfacet
  facet normal -0.951057 0.309017 0
    outer loop
      vertex 51.6285 21.4655 28
      vertex 51.6285 21.4655 2
      vertex 50.5303 18.0855 28
    endloop
  endfacet
  facet normal -0.951057 0.309017 0
    outer loop
      vertex 50.5303 18.0855 28
      vertex 51.6285 21.4655 2
      vertex 50.5303 18.0855 2
    endloop
  endfacet
  facet normal -0.866025 0.5 0
    outer loop
      vertex 50.5303 18.0855 28
      vertex 50.5303 18.0855 2
      vertex 48.7533 15.0077 28
    endloop
  endfacet
  facet normal -0.866025 0.5 0
    outer loop
      vertex 48.7533 15.0077 28
      vertex 50.5303 18.0855 2
      vertex 48.7533 15.0077 2
    endloop
  endfacet
  facet normal -0.743145 0.669131 0
    outer loop
      vertex 48.7533 15.0077 28
      vertex 48.7533 15.0077 2
      vertex 46.3752 12.3665 28
    endloop
  endfacet
  facet normal -0.743145 0.669131 0
    outer loop
      vertex 46.3752 12.3665 28
      vertex 48.7533 15.0077 2
      vertex 46.3752 12.3665 2
    endloop
  endfacet
  facet normal -0.587785 0.809017 0
    outer loop
      vertex 46.3752 12.3665 28
      vertex 46.3752 12.3665 2
      vertex 43.5 10.2776 28
    endloop
  endfacet
  facet normal -0.587785 0.809017 0
    outer loop
      vertex 43.5 10.2776 28
      vertex 46.3752 12.3665 2
      vertex 43.5 10.2776 2
    endloop
  endfacet
  facet normal -0.406737 0.913545 0
    outer loop
      vertex 43.5 10.2776 28
      vertex 43.5 10.2776 2
      vertex 40.2533 8.83204 28
    endloop
  endfacet
  facet normal -0.406737 0.913545 0
    outer loop
      vertex 40.2533 8.83204 28
      vertex 43.5 10.2776 2
      vertex 40.2533 8.83204 2
    endloop
  endfacet
  facet normal -0.207912 0.978148 0
    outer loop
      vertex 40.2533 8.83204 28
      vertex 40.2533 8.83204 2
      vertex 36.777 8.09313 28
    endloop
  endfacet
  facet normal -0.207912 0.978148 0
    outer loop
      vertex 36.777 8.09313 28
      vertex 40.2533 8.83204 2
      vertex 36.777 8.09313 2
    endloop
  endfacet
  facet normal 0 1 0
    outer loop
      vertex 36.777 8.09313 28
      vertex 36.777 8.09313 2
      vertex 33.223 8.09313 28
    endloop
  endfacet
  facet normal 0 1 0
    outer loop
      vertex 33.223 8.09313 28
      vertex 36.777 8.09313 2
      vertex 33.223 8.09313 2
    endloop
  endfacet
  facet normal 0.207912 0.978148 0
    outer loop
      vertex 33.223 8.09313 28
      vertex 33.223 8.09313 2
      vertex 29.7467 8.83204 28
    endloop
  endfacet
  facet normal 0.207912 0.978148 0
    outer loop
      vertex 29.7467 8.83204 28
      vertex 33.223 8.09313 2
      vertex 29.7467 8.83204 2
    endloop
  endfacet
  facet normal 0.406737 0.913545 0
    outer loop
      vertex 29.7467 8.83204 28
      vertex 29.7467 8.83204 2
      vertex 26.5 10.2776 28
    endloop
  endfacet
  facet normal 0.406737 0.913545 0
    outer loop
      vertex 26.5 10.2776 28
      vertex 29.7467 8.83204 2
      vertex 26.5 10.2776 2
    endloop
  endfacet
  facet normal 0.587785 0.809017 0
    outer loop
      vertex 26.5 10.2776 28
      vertex 26.5 10.2776 2
      vertex 23.6248 12.3665 28
    endloop
  endfacet
  facet normal 0.587785 0.809017 0
    outer loop
      vertex 23.6248 12.3665 28
      vertex 26.5 10.2776 2
      vertex 23.6248 12.3665 2
    endloop
  endfacet
  facet normal 0.743145 0.669131 0
    outer loop
      vertex 21.2467 15.0077 28
      vertex 23.6248 12.3665 28
      vertex 23.6248 12.3665 2
    endloop
  endfacet
  facet normal 0.743145 0.669131 0
    outer loop
      vertex 21.2467 15.0077 2
      vertex 21.2467 15.0077 28
      vertex 23.6248 12.3665 2
    endloop
  endfacet
  facet normal 0.866025 0.5 0
    outer loop
      vertex 19.4697 18.0855 28
      vertex 21.2467 15.0077 28
      vertex 21.2467 15.0077 2
    endloop
  endfacet
  facet normal 0.866025 0.5 0
    outer loop
      vertex 19.4697 18.0855 2
      vertex 19.4697 18.0855 28
      vertex 21.2467 15.0077 2
    endloop
  endfacet
  facet normal 0.951057 0.309017 0
    outer loop
      vertex 18.3715 21.4655 28
      vertex 19.4697 18.0855 28
      vertex 19.4697 18.0855 2
    endloop
  endfacet
  facet normal 0.951057 0.309017 0
    outer loop
      vertex 18.3715 21.4655 2
      vertex 18.3715 21.4655 28
      vertex 19.4697 18.0855 2
    endloop
  endfacet
  facet normal 0.994522 0.104529 0
    outer loop
      vertex 18 25 28
      vertex 18.3715 21.4655 28
      vertex 18.3715 21.4655 2
    endloop
  endfacet
  facet normal 0.994522 0.104529 0
    outer loop
      vertex 18 25 2
      vertex 18 25 28
      vertex 18.3715 21.4655 2
    endloop
  endfacet
  facet normal 0.994522 -0.104529 0
    outer loop
      vertex 18.3715 28.5345 2
      vertex 18.3715 28.5345 28
      vertex 18 25 28
    endloop
  endfacet
  facet normal 0.994522 -0.104529 0
    outer loop
      vertex 18 25 2
      vertex 18.3715 28.5345 2
      vertex 18 25 28
    endloop
  endfacet
  facet normal 0.951057 -0.309017 0
    outer loop
      vertex 19.4697 31.9145 2
      vertex 19.4697 31.9145 28
      vertex 18.3715 28.5345 28
    endloop
  endfacet
  facet normal 0.951057 -0.309017 0
    outer loop
      vertex 18.3715 28.5345 2
      vertex 19.4697 31.9145 2
      vertex 18.3715 28.5345 28
    endloop
  endfacet
  facet normal 0.866025 -0.5 0
    outer loop
      vertex 21.2467 34.9923 2
      vertex 21.2467 34.9923 28
      vertex 19.4697 31.9145 28
    endloop
  endfacet
  facet normal 0.866025 -0.5 0
    outer loop
      vertex 19.4697 31.9145 2
      vertex 21.2467 34.9923 2
      vertex 19.4697 31.9145 28
    endloop
  endfacet
  facet normal 0.743145 -0.669131 0
    outer loop
      vertex 23.6248 37.6335 2
      vertex 23.6248 37.6335 28
      vertex 21.2467 34.9923 28
    endloop
  endfacet
  facet normal 0.743145 -0.669131 0
    outer loop
      vertex 21.2467 34.9923 2
      vertex 23.6248 37.6335 2
      vertex 21.2467 34.9923 28
    endloop
  endfacet
  facet normal 0.587785 -0.809017 0
    outer loop
      vertex 26.5 39.7224 2
      vertex 26.5 39.7224 28
      vertex 23.6248 37.6335 28
    endloop
  endfacet
  facet normal 0.587785 -0.809017 0
    outer loop
      vertex 23.6248 37.6335 2
      vertex 26.5 39.7224 2
      vertex 23.6248 37.6335 28
    endloop
  endfacet
  facet normal 0.406737 -0.913545 0
    outer loop
      vertex 29.7467 41.168 2
      vertex 29.7467 41.168 28
      vertex 26.5 39.7224 28
    endloop
  endfacet
  facet normal 0.406737 -0.913545 0
    outer loop
      vertex 26.5 39.7224 2
      vertex 29.7467 41.168 2
      vertex 26.5 39.7224 28
    endloop
  endfacet
  facet normal 0.207912 -0.978148 0
    outer loop
      vertex 32 41.6469 2
      vertex 32 41.6469 28
      vertex 29.7467 41.168 28
    endloop
  endfacet
  facet normal 0.207912 -0.978148 0
    outer loop
      vertex 29.7467 41.168 2
      vertex 32 41.6469 2
      vertex 29.7467 41.168 28
    endloop
  endfacet
  facet normal 1 0 0
    outer loop
      vertex 32 43.6804 2
      vertex 32 43.6804 28
      vertex 32 41.6469 28
    endloop
  endfacet
  facet normal 1 0 0
    outer loop
      vertex 32 41.6469 2
      vertex 32 43.6804 2
      vertex 32 41.6469 28
    endloop
  endfacet
  facet normal -0.207912 0.978148 0
    outer loop
      vertex 29.1287 43.0701 2
      vertex 29.1287 43.0701 28
      vertex 32 43.6804 2
    endloop
  endfacet
  facet normal -0.207912 0.978148 0
    outer loop
      vertex 32 43.6804 2
      vertex 29.1287 43.0701 28
      vertex 32 43.6804 28
    endloop
  endfacet
  facet normal -0.406737 0.913545 0
    outer loop
      vertex 25.5 41.4545 2
      vertex 25.5 41.4545 28
      vertex 29.1287 43.0701 2
    endloop
  endfacet
  facet normal -0.406737 0.913545 0
    outer loop
      vertex 29.1287 43.0701 2
      vertex 25.5 41.4545 28
      vertex 29.1287 43.0701 28
    endloop
  endfacet
  facet normal -0.587785 0.809017 0
    outer loop
      vertex 22.2865 39.1198 2
      vertex 22.2865 39.1198 28
      vertex 25.5 41.4545 2
    endloop
  endfacet
  facet normal -0.587785 0.809017 0
    outer loop
      vertex 25.5 41.4545 2
      vertex 22.2865 39.1198 28
      vertex 25.5 41.4545 28
    endloop
  endfacet
  facet normal -0.743145 0.669131 0
    outer loop
      vertex 19.6287 36.1679 2
      vertex 19.6287 36.1679 28
      vertex 22.2865 39.1198 2
    endloop
  endfacet
  facet normal -0.743145 0.669131 0
    outer loop
      vertex 22.2865 39.1198 2
      vertex 19.6287 36.1679 28
      vertex 22.2865 39.1198 28
    endloop
  endfacet
  facet normal -0.866025 0.5 0
    outer loop
      vertex 17.6426 32.728 2
      vertex 17.6426 32.728 28
      vertex 19.6287 36.1679 2
    endloop
  endfacet
  facet normal -0.866025 0.5 0
    outer loop
      vertex 19.6287 36.1679 2
      vertex 17.6426 32.728 28
      vertex 19.6287 36.1679 28
    endloop
  endfacet
  facet normal -0.951057 0.309017 0
    outer loop
      vertex 16.4152 28.9503 2
      vertex 16.4152 28.9503 28
      vertex 17.6426 32.728 2
    endloop
  endfacet
  facet normal -0.951057 0.309017 0
    outer loop
      vertex 17.6426 32.728 2
      vertex 16.4152 28.9503 28
      vertex 17.6426 32.728 28
    endloop
  endfacet
  facet normal -0.994522 0.104529 0
    outer loop
      vertex 16 25 2
      vertex 16 25 28
      vertex 16.4152 28.9503 2
    endloop
  endfacet
  facet normal -0.994522 0.104529 0
    outer loop
      vertex 16.4152 28.9503 2
      vertex 16 25 28
      vertex 16.4152 28.9503 28
    endloop
  endfacet
  facet normal 0 0 1
    outer loop
      vertex 16.4152 28.9503 28
      vertex 16 25 28
      vertex 16.4152 21.0497 28
    endloop
  endfacet
  facet normal 0 0 1
    outer loop
      vertex 19.6287 13.8321 28
      vertex 16.4152 28.9503 28
      vertex 17.6426 17.272 28
    endloop
  endfacet
  facet normal 0 0 1
    outer loop
      vertex 17.6426 17.272 28
      vertex 16.4152 28.9503 28
      vertex 16.4152 21.0497 28
    endloop
  endfacet
  facet normal 0 0 1
    outer loop
      vertex 18.3715 21.4655 28
      vertex 16.4152 28.9503 28
      vertex 19.6287 13.8321 28
    endloop
  endfacet
  facet normal 0 0 1
    outer loop
      vertex 21.2467 15.0077 28
      vertex 19.4697 18.0855 28
      vertex 22.2865 10.8802 28
    endloop
  endfacet
  facet normal 0 0 1
    outer loop
      vertex 26.5 10.2776 28
      vertex 23.6248 12.3665 28
      vertex 25.5 8.54552 28
    endloop
  endfacet
  facet normal 0 0 1
    outer loop
      vertex 29.7467 8.83204 28
      vertex 26.5 10.2776 28
      vertex 29.1287 6.92993 28
    endloop
  endfacet
  facet normal 0 0 1
    outer loop
      vertex 33.223 8.09313 28
      vertex 29.7467 8.83204 28
      vertex 33.014 6.10408 28
    endloop
  endfacet
  facet normal 0 0 1
    outer loop
      vertex 36.777 8.09313 28
      vertex 33.223 8.09313 28
      vertex 36.986 6.10408 28
    endloop
  endfacet
  facet normal 0 0 1
    outer loop
      vertex 40.2533 8.83204 28
      vertex 36.777 8.09313 28
      vertex 40.8713 6.92993 28
    endloop
  endfacet
  facet normal 0 0 1
    outer loop
      vertex 43.5 10.2776 28
      vertex 40.2533 8.83204 28
      vertex 44.5 8.54552 28
    endloop
  endfacet
  facet normal 0 0 1
    outer loop
      vertex 46.3752 12.3665 28
      vertex 43.5 10.2776 28
      vertex 47.7135 10.8802 28
    endloop
  endfacet
  facet normal 0 0 1
    outer loop
      vertex 48.7533 15.0077 28
      vertex 46.3752 12.3665 28
      vertex 50.3713 13.8321 28
    endloop
  endfacet
  facet normal 0 0 1
    outer loop
      vertex 50.5303 18.0855 28
      vertex 48.7533 15.0077 28
      vertex 52.3574 17.272 28
    endloop
  endfacet
  facet normal 0 0 1
    outer loop
      vertex 51.6285 28.5345 28
      vertex 52 25 28
      vertex 54 25 28
    endloop
  endfacet
  facet normal 0 0 1
    outer loop
      vertex 50.5303 31.9145 28
      vertex 51.6285 28.5345 28
      vertex 53.5848 28.9503 28
    endloop
  endfacet
  facet normal 0 0 1
    outer loop
      vertex 48.7533 34.9923 28
      vertex 50.5303 31.9145 28
      vertex 52.3574 32.728 28
    endloop
  endfacet
  facet normal 0 0 1
    outer loop
      vertex 46.3752 37.6335 28
      vertex 48.7533 34.9923 28
      vertex 50.3713 36.1679 28
    endloop
  endfacet
  facet normal 0 0 1
    outer loop
      vertex 43.5 39.7224 28
      vertex 46.3752 37.6335 28
      vertex 47.7135 39.1198 28
    endloop
  endfacet
  facet normal 0 0 1
    outer loop
      vertex 40.2533 41.168 28
      vertex 43.5 39.7224 28
      vertex 44.5 41.4545 28
    endloop
  endfacet
  facet normal 0 0 1
    outer loop
      vertex 38 43.6804 28
      vertex 38 41.6469 28
      vertex 40.8713 43.0701 28
    endloop
  endfacet
  facet normal 0 0 1
    outer loop
      vertex 32 41.6469 28
      vertex 32 43.6804 28
      vertex 29.7467 41.168 28
    endloop
  endfacet
  facet normal 0 0 1
    outer loop
      vertex 40.8713 43.0701 28
      vertex 40.2533 41.168 28
      vertex 44.5 41.4545 28
    endloop
  endfacet
  facet normal 0 0 1
    outer loop
      vertex 44.5 41.4545 28
      vertex 43.5 39.7224 28
      vertex 47.7135 39.1198 28
    endloop
  endfacet
  facet normal 0 0 1
    outer loop
      vertex 47.7135 39.1198 28
      vertex 46.3752 37.6335 28
      vertex 50.3713 36.1679 28
    endloop
  endfacet
  facet normal 0 0 1
    outer loop
      vertex 50.3713 36.1679 28
      vertex 48.7533 34.9923 28
      vertex 52.3574 32.728 28
    endloop
  endfacet
  facet normal 0 0 1
    outer loop
      vertex 52.3574 32.728 28
      vertex 50.5303 31.9145 28
      vertex 53.5848 28.9503 28
    endloop
  endfacet
  facet normal 0 0 1
    outer loop
      vertex 53.5848 28.9503 28
      vertex 51.6285 28.5345 28
      vertex 54 25 28
    endloop
  endfacet
  facet normal 0 0 1
    outer loop
      vertex 54 25 28
      vertex 52 25 28
      vertex 53.5848 21.0497 28
    endloop
  endfacet
  facet normal 0 0 1
    outer loop
      vertex 53.5848 21.0497 28
      vertex 51.6285 21.4655 28
      vertex 52.3574 17.272 28
    endloop
  endfacet
  facet normal 0 0 1
    outer loop
      vertex 51.6285 21.4655 28
      vertex 50.5303 18.0855 28
      vertex 52.3574 17.272 28
    endloop
  endfacet
  facet normal 0 0 1
    outer loop
      vertex 52.3574 17.272 28
      vertex 48.7533 15.0077 28
      vertex 50.3713 13.8321 28
    endloop
  endfacet
  facet normal 0 0 1
    outer loop
      vertex 50.3713 13.8321 28
      vertex 46.3752 12.3665 28
      vertex 47.7135 10.8802 28
    endloop
  endfacet
  facet normal 0 0 1
    outer loop
      vertex 47.7135 10.8802 28
      vertex 43.5 10.2776 28
      vertex 44.5 8.54552 28
    endloop
  endfacet
  facet normal 0 0 1
    outer loop
      vertex 44.5 8.54552 28
      vertex 40.2533 8.83204 28
      vertex 40.8713 6.92993 28
    endloop
  endfacet
  facet normal 0 0 1
    outer loop
      vertex 40.8713 6.92993 28
      vertex 36.777 8.09313 28
      vertex 36.986 6.10408 28
    endloop
  endfacet
  facet normal 0 0 1
    outer loop
      vertex 36.986 6.10408 28
      vertex 33.223 8.09313 28
      vertex 33.014 6.10408 28
    endloop
  endfacet
  facet normal 0 0 1
    outer loop
      vertex 33.014 6.10408 28
      vertex 29.7467 8.83204 28
      vertex 29.1287 6.92993 28
    endloop
  endfacet
  facet normal 0 0 1
    outer loop
      vertex 18.3715 28.5345 28
      vertex 19.4697 31.9145 28
      vertex 16.4152 28.9503 28
    endloop
  endfacet
  facet normal 0 0 1
    outer loop
      vertex 29.1287 6.92993 28
      vertex 26.5 10.2776 28
      vertex 25.5 8.54552 28
    endloop
  endfacet
  facet normal 0 0 1
    outer loop
      vertex 25.5 8.54552 28
      vertex 23.6248 12.3665 28
      vertex 22.2865 10.8802 28
    endloop
  endfacet
  facet normal 0 0 1
    outer loop
      vertex 23.6248 12.3665 28
      vertex 21.2467 15.0077 28
      vertex 22.2865 10.8802 28
    endloop
  endfacet
  facet normal 0 0 1
    outer loop
      vertex 22.2865 10.8802 28
      vertex 19.4697 18.0855 28
      vertex 19.6287 13.8321 28
    endloop
  endfacet
  facet normal 0 0 1
    outer loop
      vertex 19.4697 18.0855 28
      vertex 18.3715 21.4655 28
      vertex 19.6287 13.8321 28
    endloop
  endfacet
  facet normal 0 0 1
    outer loop
      vertex 18.3715 21.4655 28
      vertex 18 25 28
      vertex 16.4152 28.9503 28
    endloop
  endfacet
  facet normal 0 0 1
    outer loop
      vertex 21.2467 34.9923 28
      vertex 16.4152 28.9503 28
      vertex 19.4697 31.9145 28
    endloop
  endfacet
  facet normal 0 0 1
    outer loop
      vertex 25.5 41.4545 28
      vertex 16.4152 28.9503 28
      vertex 21.2467 34.9923 28
    endloop
  endfacet
  facet normal 0 0 1
    outer loop
      vertex 25.5 41.4545 28
      vertex 21.2467 34.9923 28
      vertex 23.6248 37.6335 28
    endloop
  endfacet
  facet normal 0 0 1
    outer loop
      vertex 29.1287 43.0701 28
      vertex 23.6248 37.6335 28
      vertex 26.5 39.7224 28
    endloop
  endfacet
  facet normal 0 0 1
    outer loop
      vertex 32 43.6804 28
      vertex 26.5 39.7224 28
      vertex 29.7467 41.168 28
    endloop
  endfacet
  facet normal 0 0 1
    outer loop
      vertex 29.1287 43.0701 28
      vertex 26.5 39.7224 28
      vertex 32 43.6804 28
    endloop
  endfacet
  facet normal 0 0 1
    outer loop
      vertex 25.5 41.4545 28
      vertex 23.6248 37.6335 28
      vertex 29.1287 43.0701 28
    endloop
  endfacet
  facet normal 0 0 1
    outer loop
      vertex 22.2865 39.1198 28
      vertex 16.4152 28.9503 28
      vertex 25.5 41.4545 28
    endloop
  endfacet
  facet normal 0 0 1
    outer loop
      vertex 19.6287 36.1679 28
      vertex 16.4152 28.9503 28
      vertex 22.2865 39.1198 28
    endloop
  endfacet
  facet normal 0 0 1
    outer loop
      vertex 17.6426 32.728 28
      vertex 16.4152 28.9503 28
      vertex 19.6287 36.1679 28
    endloop
  endfacet
  facet normal 0 0 1
    outer loop
      vertex 38 41.6469 28
      vertex 40.2533 41.168 28
      vertex 40.8713 43.0701 28
    endloop
  endfacet
  facet normal 0 0 1
    outer loop
      vertex 52 25 28
      vertex 51.6285 21.4655 28
      vertex 53.5848 21.0497 28
    endloop
  endfacet
  facet normal 0 0 1
    outer loop
      vertex 18 25 28
      vertex 18.3715 28.5345 28
      vertex 16.4152 28.9503 28
    endloop
  endfacet
endsolid OpenSCAD_Model
